<svg xmlns="http://www.w3.org/2000/svg" style="display: none;">
  <symbol id="icon-ticket" viewBox="0 0 24 24">
    <path d="M4 9a2 2 0 0 0 0 4v2.5A1.5 1.5 0 0 0 5.5 17h13a1.5 1.5 0 0 0 1.5-1.5V13a2 2 0 0 0 0-4V6.5A1.5 1.5 0 0 0 18.5 5h-13A1.5 1.5 0 0 0 4 6.5Z" fill="none" stroke="currentColor" stroke-width="1.8" stroke-linecap="round" stroke-linejoin="round"/>
    <path d="M9 8.5v7M15 8.5v7" fill="none" stroke="currentColor" stroke-width="1.8" stroke-linecap="round" stroke-linejoin="round"/>
  </symbol>
  <symbol id="icon-calendar" viewBox="0 0 24 24">
    <path d="M7 3v3M17 3v3M4 9h16M6 5h12a2 2 0 0 1 2 2v11a2 2 0 0 1-2 2H6a2 2 0 0 1-2-2V7a2 2 0 0 1 2-2Z" fill="none" stroke="currentColor" stroke-width="1.8" stroke-linecap="round" stroke-linejoin="round"/>
    <path d="M8.5 13h3M8.5 16h7" fill="none" stroke="currentColor" stroke-width="1.8" stroke-linecap="round" stroke-linejoin="round"/>
  </symbol>
  <symbol id="icon-location" viewBox="0 0 24 24">
    <path d="M12 21s6-4.8 6-11a6 6 0 1 0-12 0c0 6.2 6 11 6 11Z" fill="none" stroke="currentColor" stroke-width="1.8" stroke-linecap="round" stroke-linejoin="round"/>
    <circle cx="12" cy="10" r="2.2" fill="currentColor"/>
  </symbol>
  <symbol id="icon-user" viewBox="0 0 24 24">
    <path d="M12 12a4 4 0 1 0-4-4 4 4 0 0 0 4 4Z" fill="none" stroke="currentColor" stroke-width="1.8" stroke-linecap="round" stroke-linejoin="round"/>
    <path d="M5 20a7 7 0 0 1 14 0" fill="none" stroke="currentColor" stroke-width="1.8" stroke-linecap="round" stroke-linejoin="round"/>
  </symbol>
  <symbol id="icon-moon" viewBox="0 0 24 24">
    <path d="M20 14.5A8.5 8.5 0 1 1 9.5 4 6.5 6.5 0 0 0 20 14.5Z" fill="none" stroke="currentColor" stroke-width="1.8" stroke-linecap="round" stroke-linejoin="round"/>
  </symbol>
</svg>
