<svg xmlns="http://www.w3.org/2000/svg" style="display: none;">
    <symbol id="icon-logo" viewBox="0 0 24 24" fill="none" stroke="currentColor" stroke-width="2"><circle cx="12" cy="12" r="10"/><path d="M2 12h20M12 2a15 15 0 0 1 0 20 15 15 0 0 1 0-20z"/></symbol>
    <symbol id="icon-user" viewBox="0 0 24 24" fill="none" stroke="currentColor" stroke-width="2"><path d="M20 21v-2a4 4 0 0 0-4-4H8a4 4 0 0 0-4 4v2"/><circle cx="12" cy="7" r="4"/></symbol>
    <symbol id="icon-play" viewBox="0 0 24 24"><path d="M5 3l14 9-14 9V3z" fill="currentColor"/></symbol>
    <symbol id="icon-trophy" viewBox="0 0 24 24" fill="none" stroke="currentColor" stroke-width="2"><path d="M6 9H4.5a2.5 2.5 0 0 1 0-5H6M18 9h1.5a2.5 2.5 0 0 0 0-5H18M4 22h16M10 14.66V17c0 .55-.47.98-.97 1.21C7.85 18.75 7 20.24 7 22M14 14.66V17c0 .55.47.98.97 1.21C16.15 18.75 17 20.24 17 22M18 2H6v7a6 6 0 0 0 12 0V2z"/></symbol>
    <symbol id="icon-file" viewBox="0 0 24 24" fill="none" stroke="currentColor" stroke-width="2"><path d="M13 2H6a2 2 0 0 0-2 2v16a2 2 0 0 0 2 2h12a2 2 0 0 0 2-2V9z"/><polyline points="13 2 13 9 20 9"/></symbol>
    <symbol id="icon-theme" viewBox="0 0 24 24" fill="none" stroke="currentColor" stroke-width="2"><path d="M21 12.79A9 9 0 1 1 11.21 3 7 7 0 0 0 21 12.79z"/></symbol>
</svg>