<svg xmlns="http://www.w3.org/2000/svg">
    <symbol id="ratingStar" viewBox="0 0 32 32">
        <path fill="currentColor" d="M3.488 13.184l6.272 6.112-1.472 8.608 7.712-4.064 7.712 4.064-1.472-8.608 6.272-6.112-8.64-1.248-3.872-7.808-3.872 7.808z"/>
    </symbol>

    <symbol id="lupa" viewBox="0 0 1024 1024">
        <path d="M909.6 854.5L649.9 594.8C690.2 542.7 712 479 712 412c0-80.2-31.3-155.4-87.9-212.1-56.6-56.7-132-87.9-212.1-87.9s-155.5 31.3-212.1 87.9C143.2 256.5 112 331.8 112 412c0 80.1 31.3 155.5 87.9 212.1C256.5 680.8 331.8 712 412 712c67 0 130.6-21.8 182.7-62l259.7 259.6a8.2 8.2 0 0 0 11.6 0l43.6-43.5a8.2 8.2 0 0 0 0-11.6zM570.4 570.4C528 612.7 471.8 636 412 636s-116-23.3-158.4-65.6C211.3 528 188 471.8 188 412s23.3-116.1 65.6-158.4C296 211.3 352.2 188 412 188s116.1 23.2 158.4 65.6S636 352.2 636 412s-23.3 116.1-65.6 158.4z"/>
    </symbol>

    <symbol id="plusCircle" viewBox="0 0 32 32">
        <rect x="10" y="15" width="12" height="2" fill="currentColor"/>
        <rect x="15" y="10" width="2" height="12" fill="currentColor"/>
        <circle
                cx="16"
                cy="16"
                r="12"
                fill="none"
                stroke="currentColor"
                stroke-width="2"
                stroke-miterlimit="10"
        />
    </symbol>

    <symbol id="trash" viewBox="0 0 24 24">
        <path
                d="M4 6H20L18.4199 20.2209C18.3074 21.2337 17.4512 22 16.4321 22H7.56786C6.54876 22 5.69264 21.2337 5.5801 20.2209L4 6Z"
                fill="none"
                stroke="currentColor"
                stroke-width="2"
                stroke-linecap="round"
                stroke-linejoin="round"
        />
        <path
                d="M7.34491 3.14716C7.67506 2.44685 8.37973 2 9.15396 2H14.846C15.6203 2 16.3249 2.44685 16.6551 3.14716L18 6H6L7.34491 3.14716Z"
                fill="none"
                stroke="currentColor"
                stroke-width="2"
                stroke-linecap="round"
                stroke-linejoin="round"
        />
        <path
                d="M2 6H22"
                fill="none"
                stroke="currentColor"
                stroke-width="2"
                stroke-linecap="round"
                stroke-linejoin="round"
        />
        <path
                d="M10 11V16"
                fill="none"
                stroke="currentColor"
                stroke-width="2"
                stroke-linecap="round"
                stroke-linejoin="round"
        />
        <path
                d="M14 11V16"
                fill="none"
                stroke="currentColor"
                stroke-width="2"
                stroke-linecap="round"
                stroke-linejoin="round"
        />
    </symbol>

    <symbol id="funnel" viewBox="0 0 16 16">
        <path
                d="M1.5 1.5A.5.5 0 0 1 2 1h12a.5.5 0 0 1 .5.5v2a.5.5 0 0 1-.128.334L10 8.692V13.5a.5.5 0 0 1-.342.474l-3 1A.5.5 0 0 1 6 14.5V8.692L1.628 3.834A.5.5 0 0 1 1.5 3.5v-2zm1 .5v1.308l4.372 4.858A.5.5 0 0 1 7 8.5v5.306l2-.666V8.5a.5.5 0 0 1 .128-.334L13.5 3.308V2h-11z"
                fill="currentColor"
        />
    </symbol>

    <symbol id="arrowLeft" viewBox="0 0 16 16">
        <path
                d="M15 8a.5.5 0 0 0-.5-.5H2.707l3.147-3.146a.5.5 0 1 0-.708-.708l-4 4a.5.5 0 0 0 0 .708l4 4a.5.5 0 0 0 .708-.708L2.707 8.5H14.5A.5.5 0 0 0 15 8z"
                fill="currentColor"
                fill-rule="evenodd"
        />
    </symbol>

    <symbol id="users" viewBox="0 0 512 512">
        <path
                d="M336,256c-20.56,0-40.44-9.18-56-25.84-15.13-16.25-24.37-37.92-26-61-1.74-24.62,5.77-47.26,21.14-63.76S312,80,336,80c23.83,0,45.38,9.06,60.7,25.52,15.47,16.62,23,39.22,21.26,63.63h0c-1.67,23.11-10.9,44.77-26,61C376.44,246.82,356.57,256,336,256Zm66-88h0Z"
                fill="currentColor"
        />
        <path
                d="M467.83,432H204.18a27.71,27.71,0,0,1-22-10.67,30.22,30.22,0,0,1-5.26-25.79c8.42-33.81,29.28-61.85,60.32-81.08C264.79,297.4,299.86,288,336,288c36.85,0,71,9,98.71,26.05,31.11,19.13,52,47.33,60.38,81.55a30.27,30.27,0,0,1-5.32,25.78A27.68,27.68,0,0,1,467.83,432Z"
                fill="currentColor"
        />
        <path
                d="M147,260c-35.19,0-66.13-32.72-69-72.93C76.58,166.47,83,147.42,96,133.45,108.86,119.62,127,112,147,112s38,7.66,50.93,21.57c13.1,14.08,19.5,33.09,18,53.52C213.06,227.29,182.13,260,147,260Z"
                fill="currentColor"
        />
        <path
                d="M212.66,291.45c-17.59-8.6-40.42-12.9-65.65-12.9-29.46,0-58.07,7.68-80.57,21.62C40.93,316,23.77,339.05,16.84,366.88a27.39,27.39,0,0,0,4.79,23.36A25.32,25.32,0,0,0,41.72,400h111a8,8,0,0,0,7.87-6.57c.11-.63.25-1.26.41-1.88,8.48-34.06,28.35-62.84,57.71-83.82a8,8,0,0,0-.63-13.39C216.51,293.42,214.71,292.45,212.66,291.45Z"
                fill="currentColor"
        />
    </symbol>

    <symbol id="door" viewBox="0 0 24 24">
        <path
                d="M5 2H16C17.6569 2 19 3.34315 19 5V19C19 19.5523 18.5523 20 18 20H15"
                fill="none"
                stroke="currentColor"
                stroke-width="2"
                stroke-linecap="round"
                stroke-linejoin="round"
        />
        <path
                d="M5 2L12.5883 3.51767C13.9906 3.79812 15 5.02937 15 6.45941V20.7802C15 21.4112 14.4227 21.8845 13.8039 21.7608L6.60777 20.3216C5.67292 20.1346 5 19.3138 5 18.3604V2Z"
                fill="none"
                stroke="currentColor"
                stroke-width="2"
                stroke-linecap="round"
                stroke-linejoin="round"
        />
        <path
                d="M12 12V14"
                fill="none"
                stroke="currentColor"
                stroke-width="2"
                stroke-linecap="round"
                stroke-linejoin="round"
        />
    </symbol>

    <symbol id="chat" viewBox="0 0 24 24">
        <path
                d="M4 18h2v4.081L11.101 18H16c1.103 0 2-.897 2-2V8c0-1.103-.897-2-2-2H4c-1.103 0-2 .897-2 2v8c0 1.103.897 2 2 2z"
                fill="currentColor"
        />
        <path
                d="M20 2H8c-1.103 0-2 .897-2 2h12c1.103 0 2 .897 2 2v8c1.103 0 2-.897 2-2V4c0-1.103-.897-2-2-2z"
                fill="currentColor"
        />
    </symbol>

    <symbol id="list" viewBox="0 0 24 24">
        <line
                x1="20"
                y1="12"
                x2="8"
                y2="12"
                stroke="currentColor"
                stroke-width="1"
                stroke-linecap="round"
                stroke-linejoin="miter"
        />
        <line
                x1="20"
                y1="6"
                x2="8"
                y2="6"
                stroke="currentColor"
                stroke-width="1"
                stroke-linecap="round"
                stroke-linejoin="miter"
        />
        <line
                x1="20"
                y1="18"
                x2="8"
                y2="18"
                stroke="currentColor"
                stroke-width="1"
                stroke-linecap="round"
                stroke-linejoin="miter"
        />
        <line
                x1="3.99"
                y1="6"
                x2="4"
                y2="6"
                stroke="currentColor"
                stroke-width="1"
                stroke-linecap="round"
                stroke-linejoin="miter"
        />
        <line
                x1="3.99"
                y1="12"
                x2="4"
                y2="12"
                stroke="currentColor"
                stroke-width="1"
                stroke-linecap="round"
                stroke-linejoin="miter"
        />
        <line
                x1="3.99"
                y1="18"
                x2="4"
                y2="18"
                stroke="currentColor"
                stroke-width="1"
                stroke-linecap="round"
                stroke-linejoin="miter"
        />
    </symbol>

    <symbol id="circleHalf" viewBox="0 0 16 16">
        <path
                d="M8 15A7 7 0 1 0 8 1v14zm0 1A8 8 0 1 1 8 0a8 8 0 0 1 0 16z"
                fill="currentColor"
        />
    </symbol>
</svg>