<svg xmlns="http://www.w3.org/2000/svg" style="display: none;">
  <!-- Шапка (Логотип) -->
  <symbol id="mortarboard-fill" viewBox="0 0 16 16">
    <path d="M8.211 2.047a.5.5 0 0 0-.422 0l-7.5 3.5a.5.5 0 0 0 .025.917l7.5 3a.5.5 0 0 0 .372 0L14 7.14V13a1 1 0 0 0-1 1v2h3v-2a1 1 0 0 0-1-1V6.739l.686-.275a.5.5 0 0 0 .025-.917l-7.5-3.5Z"/>
    <path d="M4.176 9.032a.5.5 0 0 0-.656.327l-.5 1.7a.5.5 0 0 0 .294.605l4.5 1.8a.5.5 0 0 0 .372 0l4.5-1.8a.5.5 0 0 0 .294-.605l-.5-1.7a.5.5 0 0 0-.656-.327L8 10.466 4.176 9.032Z"/>
  </symbol>

  <!-- Звездочка (Рейтинг) -->
  <symbol id="star-fill" viewBox="0 0 16 16">
    <path d="M3.612 15.443c-.386.198-.824-.149-.746-.592l.83-4.73L.173 6.765c-.329-.314-.158-.888.283-.95l4.898-.696L7.538.792c.197-.39.73-.39.927 0l2.184 4.327 4.898.696c.441.062.612.636.282.95l-3.522 3.356.83 4.73c.078.443-.36.79-.746.592L8 13.187l-4.389 2.256z"/>
  </symbol>

  <!-- Луна (Светлая тема) -->
  <symbol id="moon-stars-fill" viewBox="0 0 16 16">
    <path d="M6 .278a.768.768 0 0 1 .08.858 7.208 7.208 0 0 0-.878 3.46c0 4.021 3.278 7.277 7.318 7.277.527 0 1.04-.055 1.533-.16a.787.787 0 0 1 .81.316.733.733 0 0 1-.031.893A8.349 8.349 0 0 1 8.344 16C3.734 16 0 12.286 0 7.71 0 4.266 2.114 1.312 5.124.06A.752.752 0 0 1 6 .278z"/>
  </symbol>

  <!-- Солнце (Темная тема) -->
  <symbol id="sun-fill" viewBox="0 0 16 16">
    <path d="M8 12a4 4 0 1 0 0-8 4 4 0 0 0 0 8zM8 0a.5.5 0 0 1 .5.5v2a.5.5 0 0 1-1 0v-2A.5.5 0 0 1 8 0zm0 13a.5.5 0 0 1 .5.5v2a.5.5 0 0 1-1 0v-2A.5.5 0 0 1 8 13zm8-5a.5.5 0 0 1-.5.5h-2a.5.5 0 0 1 0-1h2a.5.5 0 0 1 .5.5zM3 8a.5.5 0 0 1-.5.5h-2a.5.5 0 0 1 0-1h2A.5.5 0 0 1 3 8zm10.657-5.657a.5.5 0 0 1 0 .707l-1.414 1.415a.5.5 0 1 1-.707-.708l1.414-1.414a.5.5 0 0 1 .707 0zm-9.193 9.193a.5.5 0 0 1 0 .707L3.05 13.657a.5.5 0 0 1-.707-.707l1.414-1.414a.5.5 0 0 1 .707 0zm9.193 2.121a.5.5 0 0 1-.707 0l-1.414-1.414a.5.5 0 0 1 .707-.707l1.414 1.414a.5.5 0 0 1 0 .707zM4.464 4.465a.5.5 0 0 1-.707 0L2.343 3.05a.5.5 0 1 1 .707-.707l1.414 1.414a.5.5 0 0 1 0 .708z"/>
  </symbol>

  <!-- Выход -->
  <symbol id="box-arrow-right" viewBox="0 0 16 16">
    <path fill-rule="evenodd" d="M10 12.5a.5.5 0 0 1-.5.5h-8a.5.5 0 0 1-.5-.5v-9a.5.5 0 0 1 .5-.5h8a.5.5 0 0 1 .5.5v2a.5.5 0 0 0 1 0v-2A1.5 1.5 0 0 0 9.5 2h-8A1.5 1.5 0 0 0 0 3.5v9A1.5 1.5 0 0 0 1.5 14h8a1.5 1.5 0 0 0 1.5-1.5v-2a.5.5 0 0 0-1 0v2z"/>
    <path fill-rule="evenodd" d="M15.854 8.354a.5.5 0 0 0 0-.708l-3-3a.5.5 0 0 0-.708.708L14.293 7.5H5.5a.5.5 0 0 0 0 1h8.793l-2.147 2.146a.5.5 0 0 0 .708.708l3-3z"/>
  </symbol>

  <!-- Лупа -->
  <symbol id="search" viewBox="0 0 16 16">
    <path d="M11.742 10.344a6.5 6.5 0 1 0-1.397 1.398h-.001c.03.04.062.078.098.115l3.85 3.85a1 1 0 0 0 1.415-1.414l-3.85-3.85a1.007 1.007 0 0 0-.115-.1zM12 6.5a5.5 5.5 0 1 1-11 0 5.5 5.5 0 0 1 11 0z"/>
  </symbol>
</svg>