<svg xmlns="http://www.w3.org/2000/svg" style="display: none;">
  <defs>
    <symbol id="icon-search" viewBox="0 0 24 24" fill="none" stroke="currentColor" stroke-width="2" stroke-linecap="round" stroke-linejoin="round">
      <circle cx="11" cy="11" r="8"></circle>
      <line x1="21" y1="21" x2="16.65" y2="16.65"></line>
    </symbol>
    <symbol id="icon-heart" viewBox="0 0 24 24" fill="none" stroke="currentColor" stroke-width="2" stroke-linecap="round" stroke-linejoin="round">
      <path d="M20.84 4.61a5.5 5.5 0 0 0-7.78 0L12 5.67l-1.06-1.06a5.5 5.5 0 0 0-7.78 7.78l1.06 1.06L12 21.23l7.78-7.78 1.06-1.06a5.5 5.5 0 0 0 0-7.78z"></path>
    </symbol>
    <symbol id="icon-heart-fill" viewBox="0 0 24 24" fill="currentColor" stroke="none">
      <path d="M12 21.35l-1.45-1.32C5.4 15.36 2 12.28 2 8.5 2 5.42 4.42 3 7.5 3c1.74 0 3.41.81 4.5 2.09C13.09 3.81 14.76 3 16.5 3 19.58 3 22 5.42 22 8.5c0 3.78-3.4 6.86-8.55 11.54L12 21.35z"></path>
    </symbol>
    <symbol id="icon-star" viewBox="0 0 24 24" fill="none" stroke="currentColor" stroke-width="2" stroke-linecap="round" stroke-linejoin="round">
      <polygon points="12 2 15.09 8.26 22 9.27 17 14.14 18.18 21.02 12 17.77 5.82 21.02 7 14.14 2 9.27 8.91 8.26 12 2"></polygon>
    </symbol>
    <symbol id="icon-star-fill" viewBox="0 0 24 24" fill="currentColor" stroke="none">
      <polygon points="12 17.27 18.18 21 16.54 13.97 22 9.24 14.81 8.63 12 2 9.19 8.63 2 9.24 7.46 13.97 5.82 21 12 17.27"></polygon>
    </symbol>
    <symbol id="icon-download" viewBox="0 0 24 24" fill="none" stroke="currentColor" stroke-width="2" stroke-linecap="round" stroke-linejoin="round">
      <path d="M21 15v4a2 2 0 0 1-2 2H5a2 2 0 0 1-2-2v-4"></path>
      <polyline points="7 10 12 15 17 10"></polyline>
      <line x1="12" y1="15" x2="12" y2="3"></line>
    </symbol>
    <symbol id="icon-home" viewBox="0 0 24 24" fill="none" stroke="currentColor" stroke-width="2" stroke-linecap="round" stroke-linejoin="round">
      <path d="M3 9l9-7 9 7v11a2 2 0 0 1-2 2H5a2 2 0 0 1-2-2z"></path>
      <polyline points="9 22 9 12 15 12 15 22"></polyline>
    </symbol>
    <symbol id="icon-user" viewBox="0 0 24 24" fill="none" stroke="currentColor" stroke-width="2" stroke-linecap="round" stroke-linejoin="round">
      <path d="M20 21v-2a4 4 0 0 0-4-4H8a4 4 0 0 0-4 4v2"></path>
      <circle cx="12" cy="7" r="4"></circle>
    </symbol>
    <symbol id="icon-moon" viewBox="0 0 24 24" fill="none" stroke="currentColor" stroke-width="2" stroke-linecap="round" stroke-linejoin="round">
      <path d="M21 12.79A9 9 0 1 1 11.21 3 7 7 0 0 0 21 12.79z"></path>
    </symbol>
    <symbol id="icon-sun" viewBox="0 0 24 24" fill="none" stroke="currentColor" stroke-width="2" stroke-linecap="round" stroke-linejoin="round">
      <circle cx="12" cy="12" r="5"></circle>
      <line x1="12" y1="1" x2="12" y2="3"></line>
      <line x1="12" y1="21" x2="12" y2="23"></line>
      <line x1="4.22" y1="4.22" x2="5.64" y2="5.64"></line>
      <line x1="18.36" y1="18.36" x2="19.78" y2="19.78"></line>
      <line x1="1" y1="12" x2="3" y2="12"></line>
      <line x1="21" y1="12" x2="23" y2="12"></line>
      <line x1="4.22" y1="19.78" x2="5.64" y2="18.36"></line>
      <line x1="18.36" y1="5.64" x2="19.78" y2="4.22"></line>
    </symbol>
    <symbol id="icon-cpu" viewBox="0 0 24 24" fill="none" stroke="currentColor" stroke-width="2">
      <rect x="4" y="4" width="16" height="16" rx="2" ry="2"></rect>
      <rect x="9" y="9" width="6" height="6"></rect>
      <line x1="9" y1="1" x2="9" y2="4"></line>
      <line x1="15" y1="1" x2="15" y2="4"></line>
      <line x1="9" y1="20" x2="9" y2="23"></line>
      <line x1="15" y1="20" x2="15" y2="23"></line>
      <line x1="20" y1="9" x2="23" y2="9"></line>
      <line x1="20" y1="14" x2="23" y2="14"></line>
      <line x1="1" y1="9" x2="4" y2="9"></line>
      <line x1="1" y1="14" x2="4" y2="14"></line>
    </symbol>
    <symbol id="icon-chevron-left" viewBox="0 0 24 24" fill="none" stroke="currentColor" stroke-width="2">
      <polyline points="15 18 9 12 15 6"></polyline>
    </symbol>
    <symbol id="icon-chevron-right" viewBox="0 0 24 24" fill="none" stroke="currentColor" stroke-width="2">
      <polyline points="9 18 15 12 9 6"></polyline>
    </symbol>
    <symbol id="icon-eye" viewBox="0 0 24 24" fill="none" stroke="currentColor" stroke-width="2">
      <path d="M1 12s4-8 11-8 11 8 11 8-4 8-11 8-11-8-11-8z"></path>
      <circle cx="12" cy="12" r="3"></circle>
    </symbol>
    <symbol id="icon-bounding-box" viewBox="0 0 24 24" fill="none" stroke="currentColor" stroke-width="2">
      <rect x="5" y="5" width="14" height="14" rx="2"></rect>
      <line x1="5" y1="9" x2="19" y2="9"></line>
      <line x1="5" y1="15" x2="19" y2="15"></line>
      <line x1="9" y1="5" x2="9" y2="19"></line>
      <line x1="15" y1="5" x2="15" y2="19"></line>
    </symbol>
    <symbol id="icon-chat-dots" viewBox="0 0 24 24" fill="none" stroke="currentColor" stroke-width="2">
      <path d="M21 15a2 2 0 0 1-2 2H7l-4 4V5a2 2 0 0 1 2-2h14a2 2 0 0 1 2 2z"></path>
      <circle cx="12" cy="10" r="1"></circle>
      <circle cx="8" cy="10" r="1"></circle>
      <circle cx="16" cy="10" r="1"></circle>
    </symbol>
    <symbol id="icon-database" viewBox="0 0 24 24" fill="none" stroke="currentColor" stroke-width="2">
      <ellipse cx="12" cy="5" rx="9" ry="3"></ellipse>
      <path d="M21 12c0 1.66-4 3-9 3s-9-1.34-9-3"></path>
      <path d="M3 5v14c0 1.66 4 3 9 3s9-1.34 9-3V5"></path>
    </symbol>
    <symbol id="icon-table" viewBox="0 0 24 24" fill="none" stroke="currentColor" stroke-width="2">
      <path d="M3 3h18v18H3z"></path>
      <line x1="9" y1="3" x2="9" y2="21"></line>
      <line x1="15" y1="3" x2="15" y2="21"></line>
      <line x1="3" y1="9" x2="21" y2="9"></line>
      <line x1="3" y1="15" x2="21" y2="15"></line>
    </symbol>
    <symbol id="icon-soundwave" viewBox="0 0 24 24" fill="none" stroke="currentColor" stroke-width="2">
      <path d="M2 14v-4M6 16v-8M10 18v-12M14 16v-8M18 14v-4M22 12v0"></path>
    </symbol>
    <symbol id="icon-layers" viewBox="0 0 24 24" fill="none" stroke="currentColor" stroke-width="2">
      <polygon points="12 2 2 7 12 12 22 7 12 2"></polygon>
      <polyline points="2 17 12 22 22 17"></polyline>
      <polyline points="2 12 12 17 22 12"></polyline>
    </symbol>
    <symbol id="icon-camera-video" viewBox="0 0 24 24" fill="none" stroke="currentColor" stroke-width="2">
      <path d="M23 7l-7 5v-4a2 2 0 0 0-2-2H3a2 2 0 0 0-2 2v8a2 2 0 0 0 2 2h11a2 2 0 0 0 2-2v-4l7 5V7z"></path>
    </symbol>
    <symbol id="icon-heart-pulse" viewBox="0 0 24 24" fill="none" stroke="currentColor" stroke-width="2">
      <path d="M20.84 4.61a5.5 5.5 0 0 0-7.78 0L12 5.67l-1.06-1.06a5.5 5.5 0 0 0-7.78 7.78l1.06 1.06L12 21.23l7.78-7.78 1.06-1.06a5.5 5.5 0 0 0 0-7.78z"></path>
      <path d="M12 8v4l2 2"></path>
    </symbol>
    <symbol id="icon-newspaper" viewBox="0 0 24 24" fill="none" stroke="currentColor" stroke-width="2">
      <path d="M4 4h16v16H4z"></path>
      <line x1="8" y1="8" x2="16" y2="8"></line>
      <line x1="8" y1="12" x2="16" y2="12"></line>
      <line x1="8" y1="16" x2="12" y2="16"></line>
    </symbol>
    <symbol id="icon-people" viewBox="0 0 24 24" fill="none" stroke="currentColor" stroke-width="2">
      <path d="M17 21v-2a4 4 0 0 0-4-4H5a4 4 0 0 0-4 4v2"></path>
      <circle cx="9" cy="7" r="4"></circle>
      <path d="M23 21v-2a4 4 0 0 0-3-3.87"></path>
      <path d="M16 3.13a4 4 0 0 1 0 7.75"></path>
    </symbol>
    <symbol id="icon-lightning-charge" viewBox="0 0 24 24" fill="none" stroke="currentColor" stroke-width="2">
      <path d="M13 2L3 14h8l-2 8 10-12h-8l2-8z"></path>
    </symbol>
    <symbol id="icon-shield-check" viewBox="0 0 24 24" fill="none" stroke="currentColor" stroke-width="2">
      <path d="M12 22s8-4 8-10V5l-8-3-8 3v7c0 6 8 10 8 10z"></path>
      <path d="M9 12l2 2 4-4"></path>
    </symbol>
    <symbol id="icon-arrow-left" viewBox="0 0 24 24" fill="none" stroke="currentColor" stroke-width="2">
      <line x1="19" y1="12" x2="5" y2="12"></line>
      <polyline points="12 19 5 12 12 5"></polyline>
    </symbol>
    <symbol id="icon-arrow-right-short" viewBox="0 0 24 24" fill="none" stroke="currentColor" stroke-width="2">
      <line x1="5" y1="12" x2="19" y2="12"></line>
      <polyline points="12 5 19 12 12 19"></polyline>
    </symbol>
    <symbol id="icon-plus-lg" viewBox="0 0 24 24" fill="none" stroke="currentColor" stroke-width="2">
      <line x1="12" y1="5" x2="12" y2="19"></line>
      <line x1="5" y1="12" x2="19" y2="12"></line>
    </symbol>
    <symbol id="icon-cloud-upload" viewBox="0 0 24 24" fill="none" stroke="currentColor" stroke-width="2">
      <path d="M17.5 19H9a3.5 3.5 0 0 1 0-7h.5A5.5 5.5 0 0 1 17 8.5 5.5 5.5 0 0 1 22 14a5.5 5.5 0 0 1-4.5 5z"></path>
      <polyline points="12 12 12 19 15 16"></polyline>
      <line x1="9" y1="16" x2="12" y2="19"></line>
    </symbol>
    <symbol id="icon-box-arrow-right" viewBox="0 0 24 24" fill="none" stroke="currentColor" stroke-width="2">
      <path d="M21 12v5a2 2 0 0 1-2 2H5a2 2 0 0 1-2-2V7a2 2 0 0 1 2-2h5"></path>
      <line x1="15" y1="9" x2="21" y2="3"></line>
      <line x1="21" y1="9" x2="21" y2="3"></line>
    </symbol>
    <symbol id="icon-image" viewBox="0 0 24 24" fill="none" stroke="currentColor" stroke-width="2">
      <rect x="3" y="3" width="18" height="18" rx="2" ry="2"></rect>
      <circle cx="8.5" cy="8.5" r="2.5"></circle>
      <polyline points="21 15 16 10 5 21"></polyline>
    </symbol>
    <symbol id="icon-hand-thumbs-up" viewBox="0 0 24 24" fill="none" stroke="currentColor" stroke-width="2">
      <path d="M14 9V5a3 3 0 0 0-3-3l-4 9v11h11.28a2 2 0 0 0 2-1.7l1.38-9a2 2 0 0 0-2-2.3zM7 22H4a2 2 0 0 1-2-2v-7a2 2 0 0 1 2-2h3"></path>
    </symbol>
  </defs>
</svg>